<?xml version="1.0" encoding="UTF-8" standalone="no"?>
<svg
   xmlns:dc="http://purl.org/dc/elements/1.1/"
   xmlns:cc="http://creativecommons.org/ns#"
   xmlns:rdf="http://www.w3.org/1999/02/22-rdf-syntax-ns#"
   xmlns:svg="http://www.w3.org/2000/svg"
   xmlns="http://www.w3.org/2000/svg"
   viewBox="0 0 1920 1080"
   height="1080"
   width="1920"
   id="svg64"
   version="1.1">
  <metadata
     id="metadata70">
    <rdf:RDF>
      <cc:Work
         rdf:about="">
        <dc:format>image/svg+xml</dc:format>
        <dc:type
           rdf:resource="http://purl.org/dc/dcmitype/StillImage" />
        <dc:title></dc:title>
      </cc:Work>
    </rdf:RDF>
  </metadata>
  <defs
     id="defs68" />
  <path
     transform="translate(-236.93986,-36.452286)"
     id="path74"
     d="m 764.58663,712.2876 c 6.67183,-107.94226 23.00995,-215.28521 48.75493,-320.32444 2.34322,-9.56031 4.7827,-19.15606 8.77666,-28.15265 3.99395,-8.99658 9.65095,-17.4436 17.46806,-23.42549 7.09754,-5.43126 15.77722,-8.64365 24.65028,-9.71247 8.87307,-1.06882 17.93299,-0.0447 26.52285,2.42261 17.17974,4.93469 32.20487,15.4134 46.12877,26.62141 13.9239,11.20801 27.19663,23.38344 42.51895,32.58784 15.32232,9.2044 33.25267,15.34733 50.97467,13.01778 14.853,-1.95243 28.4769,-9.74206 39.5772,-19.80224 11.1003,-10.06018 19.9312,-22.34223 28.2891,-34.77482 8.3579,-12.43259 16.3697,-25.16656 26.1591,-36.50642 9.7893,-11.33987 21.56,-21.34707 35.4974,-26.84014 11.3764,-4.48373 23.9297,-5.80391 36.0484,-4.17182 12.1187,1.63209 23.7915,6.17867 34.042,12.84596 20.5011,13.33457 34.8911,34.87417 42.3045,58.17967 7.4134,23.3055 8.2429,48.31571 5.5047,72.61813 -2.7381,24.30241 -8.9456,48.06606 -15.3839,71.65955 -6.4383,23.59349 -13.1418,47.18629 -16.9084,71.35067 -3.7667,24.16437 -4.5346,49.07425 0.8765,72.92428 5.4112,23.85004 17.3504,46.6497 35.9925,62.4792 9.3211,7.91476 20.2337,14.00987 31.9774,17.41727 11.7438,3.40741 24.3158,4.09199 36.2861,1.59447 15.0789,-3.14612 28.6729,-11.12434 41.5405,-19.5918 12.8676,-8.46745 25.4503,-17.61903 39.6528,-23.58243 24.8072,-10.41614 53.8864,-10.16988 78.5136,0.6649 24.6272,10.83477 44.4566,32.10592 53.539,57.43182 9.0824,25.3259 7.2903,54.35094 -4.8386,78.36722 -12.1288,24.01628 -34.4242,42.68658 -60.1972,50.40956"
     style="opacity:1;vector-effect:none;fill:none;fill-opacity:1;stroke:#000000;stroke-width:15;stroke-linecap:butt;stroke-linejoin:miter;stroke-miterlimit:4;stroke-dasharray:none;stroke-dashoffset:0;stroke-opacity:1" />
</svg>
