<svg    
viewBox="0 0 500 500"
height="500"
width="500">

  <path

     d="m 231.5,499.41933 c -1.65,-0.23015 -7.275,-0.90478 -12.5,-1.49918 C 167.95515,492.11327 116.03722,467.57191 77.696621,431.12669 43.308049,398.43814 16.696845,351.87033 6.5485648,306.62242 1.6709392,284.87466 0.64292172,275.09001 0.5995681,250 0.56912853,232.38372 1.0008622,223.62073 2.323943,215 10.821982,159.62975 34.609169,112.28954 73.449357,73.449357 112.55917,34.339538 159.20603,10.901562 215,2.3264293 c 15.6109,-2.39928338 53.78538,-2.41196859 69.30519,-0.02303 53.98668,8.3100817 99.7992,30.4596357 137.98949,66.7155197 26.87587,25.51455 49.37326,59.659991 62.20779,94.415921 4.78904,12.96872 10.83256,36.98135 13.10381,52.06516 2.21578,14.71544 2.54073,51.27315 0.57777,65 C 488.92505,345.24736 459.9451,399.1227 412.5,439.79144 375.74138,471.3 332.09621,490.77028 282,498.008 c -7.70584,1.11331 -45.13689,2.1594 -50.5,1.41133 z m 59,-9.29979 c 16.55469,-2.97525 32.92249,-7.45681 46.27567,-12.67047 81.37455,-31.7721 137.89069,-100.94365 153.25886,-187.57745 2.77899,-15.66576 3.7926,-48.61142 2.0048,-65.16237 C 485.9933,168.73676 461.92132,118.12331 422.5,78.496715 402.56702,58.459943 383.54988,44.783944 357.94931,32.075693 323.36499,14.907863 288.9937,6.8880707 250,6.8880707 184.14965,6.8880707 124.3113,31.607853 77.959576,77.959576 41.539894,114.37926 19.161244,157.68196 9.8772097,209.69901 6.8861272,226.45759 6.1447754,262.53592 8.4326371,280 12.09369,307.94615 19.36514,331.88754 31.970843,357.5 c 12.709052,25.82245 26.462452,45.03632 46.527368,65 37.629489,37.43962 86.254209,61.40073 140.001789,68.98957 15.61733,2.20508 56.42847,1.42851 72,-1.37003 z M 226,426.91039 C 142.97915,416.23258 79.009504,353.90031 71.454658,276.32081 l -0.699123,-7.17918 -5.32724,2.61272 c -4.542854,2.22802 -5.705737,2.44027 -7.897845,1.44148 -3.208041,-1.46168 -4.807321,-5.33741 -3.558167,-8.62293 1.152341,-3.03089 7.695732,-6.88976 15.462862,-9.11901 4.473414,-1.28392 8.290814,-1.58201 15.5,-1.21034 10.688047,0.55102 14.832946,1.98427 15.697235,5.42789 1.56961,6.25379 -2.483629,9.72188 -10.136275,8.67297 -5.355265,-0.73402 -5.275261,-1.11364 -2.983249,14.15559 5.076441,33.81891 22.616544,65.45901 49.230014,88.80464 21.95045,19.25517 49.83926,32.73736 80.42334,38.87877 9.77239,1.96234 14.36461,2.27238 33.33379,2.25052 18.8393,-0.0217 23.45008,-0.34017 32.09323,-2.21663 14.75833,-3.20408 26.05895,-6.6501 36.33239,-11.07922 53.72518,-23.16219 89.73636,-70.92327 94.62608,-125.50113 l 0.70446,-7.86305 -6.0401,0.70102 c -5.33137,0.61877 -6.28511,0.45603 -8.12808,-1.38694 -2.06351,-2.06351 -2.74724,-6.55478 -1.32267,-8.68828 1.50926,-2.26031 5.44486,-3.47851 13.16008,-4.07347 9.98667,-0.77011 18.72223,0.86757 26.42208,4.95342 5.93122,3.14734 8.14627,6.15317 6.97248,9.46167 -1.92186,5.41701 -6.60956,6.70938 -11.81995,3.25868 -1.65,-1.09275 -3.27543,-1.98979 -3.61207,-1.99341 -0.33664,-0.004 -0.92094,3.48091 -1.29844,7.74341 -6.79106,76.67893 -69.89267,138.96695 -152.70645,150.73758 -11.21287,1.59373 -38.95106,1.82883 -49.88304,0.42281 z M 179.28024,225.02935 c -7.10714,-4.33341 -13.3148,-17.17946 -17.44808,-36.10682 -2.01639,-9.2336 -2.27923,-13.21733 -2.30409,-34.92253 -0.0227,-19.80805 0.31524,-26.12782 1.7646,-33 3.37797,-16.0168 8.7554,-29.553706 13.96435,-35.15327 C 189.6577,70.366178 204.66457,87.979188 211.173,128 c 1.87921,11.55539 1.56991,41.41167 -0.56397,54.43952 -4.38782,26.78859 -14.10835,44.56697 -24.36191,44.55674 -2.06092,-0.002 -5.19601,-0.88716 -6.96688,-1.96691 z m 134.06975,0.0424 c -11.29317,-6.88615 -19.08152,-32.1451 -20.07825,-65.11722 -1.02173,-33.7988 5.02105,-61.417827 16.12726,-73.71108 4.89386,-5.41691 8.56305,-6.871023 13.56004,-5.373887 9.3196,2.792218 17.19017,18.435172 21.70059,43.130417 2.37997,13.0307 2.39288,45.52435 0.0235,59.23684 -3.51943,20.36858 -11.15302,37.69465 -18.51033,42.01316 -3.89353,2.28538 -8.89661,2.21584 -12.82285,-0.17823 z"
     style="fill:#000000" />
</svg>
